<svg xmlns="http://www.w3.org/2000/svg" width="30.5" height="30.5" viewBox="0 0 30.5 30.5">
  <g id="Groupe_4015" data-name="Groupe 4015" transform="translate(12833.371 20117.25)">
    <path id="Tracé_11112" data-name="Tracé 11112" d="M243.432,180.108a.245.245,0,0,0,.346,0l4.274-4.274,4.274,4.274a.245.245,0,0,0,.346-.346l-4.274-4.274,4.274-4.274a.245.245,0,0,0-.346-.346l-4.274,4.274-4.274-4.274a.245.245,0,0,0-.346.346l4.274,4.274-4.274,4.274A.244.244,0,0,0,243.432,180.108Z" transform="translate(-13066.131 -20277.635)" fill="#fff" stroke="#fff" stroke-width="0.5"/>
    <path id="Tracé_11113" data-name="Tracé 11113" d="M140.41,86a15,15,0,1,0-15-15A15.017,15.017,0,0,0,140.41,86Zm0-29.252A14.252,14.252,0,1,1,126.158,71,14.268,14.268,0,0,1,140.41,56.748Z" transform="translate(-12958.531 -20173)" fill="#fff" stroke="#fff" stroke-width="0.5"/>
  </g>
</svg>
