<svg xmlns="http://www.w3.org/2000/svg" xmlns:xlink="http://www.w3.org/1999/xlink" width="380" height="39" viewBox="0 0 380 39">
  <defs>
    <clipPath id="clip-path">
      <rect id="Rectangle_1565" data-name="Rectangle 1565" width="216" height="39" transform="translate(855.25 3068)" fill="#4ca4e8" stroke="#707070" stroke-width="1"/>
    </clipPath>
    <clipPath id="clip-path-2">
      <rect id="Rectangle_1561" data-name="Rectangle 1561" width="124.904" height="9.271" fill="#4ca4e8"/>
    </clipPath>
    <clipPath id="clip-path-6">
      <rect id="Rectangle_1570" data-name="Rectangle 1570" width="259" height="39" transform="translate(900.25 3068)" fill="#4ca4e8" stroke="#707070" stroke-width="1"/>
    </clipPath>
  </defs>
  <g id="Groupe_3913" data-name="Groupe 3913" transform="translate(-1062 -484.999)">
    <g id="Groupe_de_masques_15" data-name="Groupe de masques 15" transform="translate(206.75 -2583.001)" clip-path="url(#clip-path)">
      <g id="Groupe_3486" data-name="Groupe 3486" transform="translate(-37.75 -18)">
        <g id="Groupe_3480" data-name="Groupe 3480">
          <g id="Groupe_3477" data-name="Groupe 3477" transform="translate(923.869 3109.271) rotate(180)">
            <g id="Groupe_3476" data-name="Groupe 3476" transform="translate(0 0)" clip-path="url(#clip-path-2)">
              <path id="Tracé_10939" data-name="Tracé 10939" d="M119.74,9.271c-3.884,0-6.915-1.85-9.847-3.64s-5.676-3.465-9.249-3.465-6.33,1.683-9.249,3.465-5.962,3.64-9.847,3.64-6.915-1.85-9.847-3.64-5.676-3.465-9.249-3.465S56.122,3.849,53.2,5.631s-5.962,3.64-9.847,3.64-6.916-1.85-9.847-3.64-5.676-3.465-9.249-3.465-6.33,1.683-9.249,3.465-5.963,3.64-9.847,3.64A13.205,13.205,0,0,1,0,8.172L.428,6.094A12.122,12.122,0,0,0,5.165,7.1c3.573,0,6.33-1.683,9.249-3.465S20.376,0,24.261,0s6.915,1.851,9.847,3.64S39.783,7.1,43.357,7.1s6.33-1.683,9.249-3.465S58.568,0,62.452,0,69.368,1.851,72.3,3.64,77.975,7.1,81.548,7.1,87.878,5.422,90.8,3.64,96.76,0,100.644,0s6.916,1.851,9.847,3.64S116.167,7.1,119.74,7.1a12.127,12.127,0,0,0,4.737-1.011l.427,2.078a13.2,13.2,0,0,1-5.164,1.1" transform="translate(0 0)" fill="#4ca4e8"/>
            </g>
          </g>
          <g id="Groupe_3479" data-name="Groupe 3479" transform="translate(1038.286 3109.271) rotate(180)">
            <g id="Groupe_3478" data-name="Groupe 3478" transform="translate(0 0)" clip-path="url(#clip-path-2)">
              <path id="Tracé_10940" data-name="Tracé 10940" d="M119.74,9.271c-3.884,0-6.915-1.85-9.847-3.64s-5.676-3.465-9.249-3.465-6.33,1.683-9.249,3.465-5.962,3.64-9.847,3.64-6.915-1.85-9.847-3.64-5.676-3.465-9.249-3.465S56.122,3.849,53.2,5.631s-5.962,3.64-9.847,3.64-6.916-1.85-9.847-3.64-5.676-3.465-9.249-3.465-6.33,1.683-9.249,3.465-5.963,3.64-9.847,3.64A13.205,13.205,0,0,1,0,8.172L.428,6.094A12.122,12.122,0,0,0,5.165,7.1c3.573,0,6.33-1.683,9.249-3.465S20.376,0,24.261,0s6.915,1.851,9.847,3.64S39.783,7.1,43.357,7.1s6.33-1.683,9.249-3.465S58.568,0,62.452,0,69.368,1.851,72.3,3.64,77.975,7.1,81.548,7.1,87.878,5.422,90.8,3.64,96.76,0,100.644,0s6.916,1.851,9.847,3.64S116.167,7.1,119.74,7.1a12.127,12.127,0,0,0,4.737-1.011l.427,2.078a13.2,13.2,0,0,1-5.164,1.1" transform="translate(0 0)" fill="#4ca4e8"/>
            </g>
          </g>
        </g>
        <g id="Groupe_3485" data-name="Groupe 3485" transform="translate(229)">
          <g id="Groupe_3482" data-name="Groupe 3482" transform="translate(923.869 3109.271) rotate(180)">
            <g id="Groupe_3481" data-name="Groupe 3481" transform="translate(0 0)" clip-path="url(#clip-path-2)">
              <path id="Tracé_10941" data-name="Tracé 10941" d="M119.74,9.271c-3.884,0-6.915-1.85-9.847-3.64s-5.676-3.465-9.249-3.465-6.33,1.683-9.249,3.465-5.962,3.64-9.847,3.64-6.915-1.85-9.847-3.64-5.676-3.465-9.249-3.465S56.122,3.849,53.2,5.631s-5.962,3.64-9.847,3.64-6.916-1.85-9.847-3.64-5.676-3.465-9.249-3.465-6.33,1.683-9.249,3.465-5.963,3.64-9.847,3.64A13.205,13.205,0,0,1,0,8.172L.428,6.094A12.122,12.122,0,0,0,5.165,7.1c3.573,0,6.33-1.683,9.249-3.465S20.376,0,24.261,0s6.915,1.851,9.847,3.64S39.783,7.1,43.357,7.1s6.33-1.683,9.249-3.465S58.568,0,62.452,0,69.368,1.851,72.3,3.64,77.975,7.1,81.548,7.1,87.878,5.422,90.8,3.64,96.76,0,100.644,0s6.916,1.851,9.847,3.64S116.167,7.1,119.74,7.1a12.127,12.127,0,0,0,4.737-1.011l.427,2.078a13.2,13.2,0,0,1-5.164,1.1" transform="translate(0 0)" fill="#4ca4e8"/>
            </g>
          </g>
          <g id="Groupe_3484" data-name="Groupe 3484" transform="translate(1038.286 3109.271) rotate(180)">
            <g id="Groupe_3483" data-name="Groupe 3483" transform="translate(0 0)" clip-path="url(#clip-path-2)">
              <path id="Tracé_10942" data-name="Tracé 10942" d="M119.74,9.271c-3.884,0-6.915-1.85-9.847-3.64s-5.676-3.465-9.249-3.465-6.33,1.683-9.249,3.465-5.962,3.64-9.847,3.64-6.915-1.85-9.847-3.64-5.676-3.465-9.249-3.465S56.122,3.849,53.2,5.631s-5.962,3.64-9.847,3.64-6.916-1.85-9.847-3.64-5.676-3.465-9.249-3.465-6.33,1.683-9.249,3.465-5.963,3.64-9.847,3.64A13.205,13.205,0,0,1,0,8.172L.428,6.094A12.122,12.122,0,0,0,5.165,7.1c3.573,0,6.33-1.683,9.249-3.465S20.376,0,24.261,0s6.915,1.851,9.847,3.64S39.783,7.1,43.357,7.1s6.33-1.683,9.249-3.465S58.568,0,62.452,0,69.368,1.851,72.3,3.64,77.975,7.1,81.548,7.1,87.878,5.422,90.8,3.64,96.76,0,100.644,0s6.916,1.851,9.847,3.64S116.167,7.1,119.74,7.1a12.127,12.127,0,0,0,4.737-1.011l.427,2.078a13.2,13.2,0,0,1-5.164,1.1" transform="translate(0 0)" fill="#4ca4e8"/>
            </g>
          </g>
        </g>
      </g>
    </g>
    <g id="Groupe_16" data-name="Groupe 16" transform="translate(282.75 -2583.001)" clip-path="url(#clip-path-6)">
      <g id="Groupe_3497" data-name="Groupe 3497" transform="translate(-37.75 -18)">
        <g id="Groupe_3491" data-name="Groupe 3491">
          <g id="Groupe_3488" data-name="Groupe 3488" transform="translate(923.869 3109.271) rotate(180)">
            <g id="Groupe_3487" data-name="Groupe 3487" transform="translate(0 0)" clip-path="url(#clip-path-2)">
              <path id="Tracé_10943" data-name="Tracé 10943" d="M119.74,9.271c-3.884,0-6.915-1.85-9.847-3.64s-5.676-3.465-9.249-3.465-6.33,1.683-9.249,3.465-5.962,3.64-9.847,3.64-6.915-1.85-9.847-3.64-5.676-3.465-9.249-3.465S56.122,3.849,53.2,5.631s-5.962,3.64-9.847,3.64-6.916-1.85-9.847-3.64-5.676-3.465-9.249-3.465-6.33,1.683-9.249,3.465-5.963,3.64-9.847,3.64A13.205,13.205,0,0,1,0,8.172L.428,6.094A12.122,12.122,0,0,0,5.165,7.1c3.573,0,6.33-1.683,9.249-3.465S20.376,0,24.261,0s6.915,1.851,9.847,3.64S39.783,7.1,43.357,7.1s6.33-1.683,9.249-3.465S58.568,0,62.452,0,69.368,1.851,72.3,3.64,77.975,7.1,81.548,7.1,87.878,5.422,90.8,3.64,96.76,0,100.644,0s6.916,1.851,9.847,3.64S116.167,7.1,119.74,7.1a12.127,12.127,0,0,0,4.737-1.011l.427,2.078a13.2,13.2,0,0,1-5.164,1.1" transform="translate(0 0)" fill="#4ca4e8"/>
            </g>
          </g>
          <g id="Groupe_3490" data-name="Groupe 3490" transform="translate(1038.286 3109.271) rotate(180)">
            <g id="Groupe_3489" data-name="Groupe 3489" transform="translate(0 0)" clip-path="url(#clip-path-2)">
              <path id="Tracé_10944" data-name="Tracé 10944" d="M119.74,9.271c-3.884,0-6.915-1.85-9.847-3.64s-5.676-3.465-9.249-3.465-6.33,1.683-9.249,3.465-5.962,3.64-9.847,3.64-6.915-1.85-9.847-3.64-5.676-3.465-9.249-3.465S56.122,3.849,53.2,5.631s-5.962,3.64-9.847,3.64-6.916-1.85-9.847-3.64-5.676-3.465-9.249-3.465-6.33,1.683-9.249,3.465-5.963,3.64-9.847,3.64A13.205,13.205,0,0,1,0,8.172L.428,6.094A12.122,12.122,0,0,0,5.165,7.1c3.573,0,6.33-1.683,9.249-3.465S20.376,0,24.261,0s6.915,1.851,9.847,3.64S39.783,7.1,43.357,7.1s6.33-1.683,9.249-3.465S58.568,0,62.452,0,69.368,1.851,72.3,3.64,77.975,7.1,81.548,7.1,87.878,5.422,90.8,3.64,96.76,0,100.644,0s6.916,1.851,9.847,3.64S116.167,7.1,119.74,7.1a12.127,12.127,0,0,0,4.737-1.011l.427,2.078a13.2,13.2,0,0,1-5.164,1.1" transform="translate(0 0)" fill="#4ca4e8"/>
            </g>
          </g>
        </g>
        <g id="Groupe_3496" data-name="Groupe 3496" transform="translate(229)">
          <g id="Groupe_3493" data-name="Groupe 3493" transform="translate(923.869 3109.271) rotate(180)">
            <g id="Groupe_3492" data-name="Groupe 3492" transform="translate(0 0)" clip-path="url(#clip-path-2)">
              <path id="Tracé_10945" data-name="Tracé 10945" d="M119.74,9.271c-3.884,0-6.915-1.85-9.847-3.64s-5.676-3.465-9.249-3.465-6.33,1.683-9.249,3.465-5.962,3.64-9.847,3.64-6.915-1.85-9.847-3.64-5.676-3.465-9.249-3.465S56.122,3.849,53.2,5.631s-5.962,3.64-9.847,3.64-6.916-1.85-9.847-3.64-5.676-3.465-9.249-3.465-6.33,1.683-9.249,3.465-5.963,3.64-9.847,3.64A13.205,13.205,0,0,1,0,8.172L.428,6.094A12.122,12.122,0,0,0,5.165,7.1c3.573,0,6.33-1.683,9.249-3.465S20.376,0,24.261,0s6.915,1.851,9.847,3.64S39.783,7.1,43.357,7.1s6.33-1.683,9.249-3.465S58.568,0,62.452,0,69.368,1.851,72.3,3.64,77.975,7.1,81.548,7.1,87.878,5.422,90.8,3.64,96.76,0,100.644,0s6.916,1.851,9.847,3.64S116.167,7.1,119.74,7.1a12.127,12.127,0,0,0,4.737-1.011l.427,2.078a13.2,13.2,0,0,1-5.164,1.1" transform="translate(0 0)" fill="#4ca4e8"/>
            </g>
          </g>
          <g id="Groupe_3495" data-name="Groupe 3495" transform="translate(1038.286 3109.271) rotate(180)">
            <g id="Groupe_3494" data-name="Groupe 3494" transform="translate(0 0)" clip-path="url(#clip-path-2)">
              <path id="Tracé_10946" data-name="Tracé 10946" d="M119.74,9.271c-3.884,0-6.915-1.85-9.847-3.64s-5.676-3.465-9.249-3.465-6.33,1.683-9.249,3.465-5.962,3.64-9.847,3.64-6.915-1.85-9.847-3.64-5.676-3.465-9.249-3.465S56.122,3.849,53.2,5.631s-5.962,3.64-9.847,3.64-6.916-1.85-9.847-3.64-5.676-3.465-9.249-3.465-6.33,1.683-9.249,3.465-5.963,3.64-9.847,3.64A13.205,13.205,0,0,1,0,8.172L.428,6.094A12.122,12.122,0,0,0,5.165,7.1c3.573,0,6.33-1.683,9.249-3.465S20.376,0,24.261,0s6.915,1.851,9.847,3.64S39.783,7.1,43.357,7.1s6.33-1.683,9.249-3.465S58.568,0,62.452,0,69.368,1.851,72.3,3.64,77.975,7.1,81.548,7.1,87.878,5.422,90.8,3.64,96.76,0,100.644,0s6.916,1.851,9.847,3.64S116.167,7.1,119.74,7.1a12.127,12.127,0,0,0,4.737-1.011l.427,2.078a13.2,13.2,0,0,1-5.164,1.1" transform="translate(0 0)" fill="#4ca4e8"/>
            </g>
          </g>
        </g>
      </g>
    </g>
  </g>
</svg>
