<svg xmlns="http://www.w3.org/2000/svg" width="180" height="271.235" viewBox="0 0 180 271.235">
  <g id="Groupe_3741" data-name="Groupe 3741" transform="translate(0 561)">
    <g id="Groupe_3551" data-name="Groupe 3551" transform="translate(30.632)">
      <path id="Tracé_2123" data-name="Tracé 2123" d="M96.542.085V105.232a23.694,23.694,0,0,0-12.888-3.811,23.058,23.058,0,0,0-8.528,1.6V0h19.9a13.735,13.735,0,0,1,1.517.082" transform="translate(-9.858 -561.003)" fill="#22343d"/>
      <path id="Tracé_2124" data-name="Tracé 2124" d="M95.934,15.388V125.033a11.936,11.936,0,0,0-2.649-.276,4.927,4.927,0,0,0-.634.027,23.645,23.645,0,0,0-9.025-18.491V.154A15.624,15.624,0,0,1,95.934,15.388" transform="translate(4.878 -560.741)" fill="#22343d"/>
      <path id="Tracé_2125" data-name="Tracé 2125" d="M62.983.2V40.166A23.689,23.689,0,0,0,53.13,51.4H52.5c-.413,0-.828.027-1.241.055V15.3A15.6,15.6,0,0,1,62.983.2" transform="translate(-51.254 -560.653)" fill="#22343d"/>
      <path id="Tracé_2126" data-name="Tracé 2126" d="M77.811,0V40.186a23.722,23.722,0,0,0-21.58-.692V.17A11.945,11.945,0,0,1,58.243,0Z" transform="translate(-42.624 -561.003)" fill="#22343d"/>
      <path id="Tracé_2127" data-name="Tracé 2127" d="M152.068,150.932v6.154a15.688,15.688,0,0,1-15.647,15.647H66.874a15.683,15.683,0,0,1-15.62-15.647V86.933c.416.03.828.057,1.241.057H99.357a13.081,13.081,0,0,0,0-26.162h-.634A23.7,23.7,0,0,0,88.235,41.26V0h26.493V103.8a23.668,23.668,0,0,0-11.535,12.142h-.607a17.635,17.635,0,1,0,0,35.27h46.832a11.936,11.936,0,0,0,2.649-.276" transform="translate(-51.254 -561.003)" fill="#22343d"/>
    </g>
    <g id="Groupe_3552" data-name="Groupe 3552" transform="translate(0 -344.811)">
      <text id="A" transform="translate(0 44.046)" fill="#22343d" font-size="45" font-family="Fraunces72pt-Bold, 'Fraunces \37 2pt'" font-weight="700"><tspan x="0" y="0">A</tspan></text>
      <text id="cloud" transform="translate(33.782 44)" fill="#22343d" font-size="45" font-family="Fraunces72pt-Black, 'Fraunces \37 2pt'" font-weight="800"><tspan x="0" y="0">cloud</tspan></text>
      <path id="Tracé_2121" data-name="Tracé 2121" d="M114.552,76.99H118.9c1.834,0,3.056,1.062,3.056,2.645a2.186,2.186,0,0,1-1.741,2.294v.038a1.874,1.874,0,0,1,1.446,1.911c.137,1.341.082,2.36.411,2.508v.093h-1.84c-.241-.109-.268-1.172-.345-2.19a1.626,1.626,0,0,0-1.862-1.621h-1.55v3.811h-1.922Zm1.922,4.194h2.043c1.046,0,1.566-.542,1.566-1.3s-.493-1.336-1.511-1.336h-2.1Z" transform="translate(51.873 -68.173)" fill="#22343d"/>
      <path id="Tracé_2122" data-name="Tracé 2122" d="M123.371,96.012a9.99,9.99,0,1,1,9.988-9.993,10,10,0,0,1-9.988,9.993m0-18.874a8.884,8.884,0,1,0,8.882,8.881,8.891,8.891,0,0,0-8.882-8.881" transform="translate(46.64 -72.463)" fill="#22343d"/>
    </g>
  </g>
</svg>
