<svg xmlns="http://www.w3.org/2000/svg" xmlns:xlink="http://www.w3.org/1999/xlink" width="1488.518" height="1488.518" viewBox="0 0 1488.518 1488.518">
  <defs>
    <clipPath id="clip-path">
      <rect id="Rectangle_1526" data-name="Rectangle 1526" width="1488.518" height="1488.518" fill="none" stroke="#cee0ee" stroke-width="1"/>
    </clipPath>
  </defs>
  <g id="Groupe_3452" data-name="Groupe 3452" opacity="0.11">
    <g id="Groupe_3372" data-name="Groupe 3372" clip-path="url(#clip-path)">
      <circle id="Ellipse_361" data-name="Ellipse 361" cx="13.342" cy="13.342" r="13.342" transform="translate(726.827 737.038) rotate(-22.5)" fill="none" stroke="#cee0ee" stroke-linecap="round" stroke-miterlimit="10" stroke-width="10"/>
      <path id="Tracé_10918" data-name="Tracé 10918" d="M501.953,407.484a94.469,94.469,0,1,1-94.468-94.468A94.468,94.468,0,0,1,501.953,407.484Z" transform="translate(336.774 336.775)" fill="none" stroke="#cee0ee" stroke-linecap="round" stroke-miterlimit="10" stroke-width="8.972"/>
      <circle id="Ellipse_362" data-name="Ellipse 362" cx="175.596" cy="175.596" r="175.596" transform="translate(567.788 569.543) rotate(-0.286)" fill="none" stroke="#cee0ee" stroke-linecap="round" stroke-miterlimit="10" stroke-width="7.944"/>
      <circle id="Ellipse_363" data-name="Ellipse 363" cx="256.722" cy="256.722" r="256.722" transform="matrix(1, -0.003, 0.003, 1, 486.876, 488.199)" fill="none" stroke="#cee0ee" stroke-linecap="round" stroke-miterlimit="10" stroke-width="6.917"/>
      <circle id="Ellipse_364" data-name="Ellipse 364" cx="337.849" cy="337.849" r="337.849" transform="matrix(0.003, -1, 1, 0.003, 405.562, 1081.258)" fill="none" stroke="#cee0ee" stroke-linecap="round" stroke-miterlimit="10" stroke-width="5.889"/>
      <circle id="Ellipse_365" data-name="Ellipse 365" cx="418.975" cy="418.975" r="418.975" transform="translate(325.284 325.284)" fill="none" stroke="#cee0ee" stroke-linecap="round" stroke-miterlimit="10" stroke-width="4.861"/>
      <circle id="Ellipse_366" data-name="Ellipse 366" cx="500.101" cy="500.101" r="500.101" transform="translate(244.158 244.158)" fill="none" stroke="#cee0ee" stroke-linecap="round" stroke-miterlimit="10" stroke-width="3.833"/>
      <circle id="Ellipse_367" data-name="Ellipse 367" cx="581.228" cy="581.228" r="581.228" transform="translate(163.031 163.031)" fill="none" stroke="#cee0ee" stroke-linecap="round" stroke-miterlimit="10" stroke-width="2.806"/>
      <circle id="Ellipse_368" data-name="Ellipse 368" cx="662.354" cy="662.354" r="662.354" transform="translate(81.905 81.905)" fill="none" stroke="#cee0ee" stroke-linecap="round" stroke-miterlimit="10" stroke-width="1.778"/>
      <circle id="Ellipse_369" data-name="Ellipse 369" cx="743.481" cy="743.481" r="743.481" transform="translate(0.779 0.778)" fill="none" stroke="#cee0ee" stroke-linecap="round" stroke-miterlimit="10" stroke-width="0.75"/>
    </g>
  </g>
</svg>
